<?xml version="1.0" standalone="no"?>
<!DOCTYPE svg PUBLIC "-//W3C//DTD SVG 20010904//EN"
 "http://www.w3.org/TR/2001/REC-SVG-20010904/DTD/svg10.dtd">
<svg version="1.0" xmlns="http://www.w3.org/2000/svg"
 width="3840.000000pt" height="2160.000000pt" viewBox="0 0 3840.000000 2160.000000"
 preserveAspectRatio="xMidYMid meet">

<g transform="translate(0.000000,2160.000000) scale(0.100000,-0.100000)"
fill="#000000" stroke="none">
<path d="M18670 21209 c-1325 -65 -2499 -333 -3690 -841 -268 -115 -810 -387
-1075 -540 -1713 -989 -3031 -2311 -4007 -4018 -143 -249 -377 -710 -483 -950
-533 -1210 -816 -2422 -885 -3790 -12 -235 -11 -847 1 -1090 96 -1862 620
-3534 1595 -5080 742 -1178 1716 -2229 2790 -3011 743 -541 1582 -991 2474
-1327 363 -137 445 -162 566 -169 68 -3 136 -1 181 6 185 32 325 156 389 347
l26 79 -1 320 c-1 504 -13 1760 -17 1764 -2 2 -99 -13 -216 -33 -295 -50 -356
-56 -653 -63 -420 -9 -826 25 -1220 103 -486 96 -958 384 -1235 752 -100 134
-170 260 -245 447 -177 437 -291 656 -479 925 -237 337 -444 543 -675 670
-192 105 -356 261 -431 411 -68 134 -15 206 176 243 147 28 239 28 416 1 206
-31 296 -60 483 -154 233 -118 454 -270 605 -415 182 -176 278 -299 435 -556
138 -225 251 -376 395 -524 175 -181 344 -307 545 -410 285 -146 514 -194 870
-182 458 16 790 79 1125 215 68 28 127 54 131 58 4 4 17 63 28 131 88 510 278
913 579 1224 42 43 74 79 71 81 -2 2 -76 12 -164 21 -478 53 -1062 168 -1442
285 -467 144 -1018 406 -1418 674 -683 457 -1134 1056 -1450 1925 -260 715
-376 1429 -376 2321 0 477 37 796 136 1176 156 597 457 1164 861 1619 44 48
83 94 88 100 5 7 -6 49 -28 110 -77 204 -138 455 -172 701 -25 180 -26 662 -1
850 48 359 120 659 249 1025 28 80 54 149 58 154 17 18 150 37 260 37 324 1
669 -100 1368 -400 466 -200 696 -324 1152 -622 l165 -108 210 54 c628 160
1261 256 1950 294 206 12 985 6 1180 -9 661 -49 1215 -138 1810 -290 104 -27
194 -46 200 -42 5 3 136 85 291 183 492 311 792 467 1266 660 357 145 607 224
843 264 136 24 346 25 446 2 l75 -18 51 -137 c136 -365 226 -730 269 -1092 22
-177 25 -582 5 -745 -29 -256 -86 -509 -161 -715 -23 -63 -44 -123 -47 -132
-4 -12 13 -38 53 -80 97 -105 260 -315 359 -463 384 -574 605 -1222 664 -1948
23 -279 12 -855 -24 -1227 -93 -951 -382 -1838 -805 -2469 -280 -418 -690
-799 -1173 -1089 -451 -270 -979 -497 -1447 -621 -322 -85 -827 -179 -1195
-221 -104 -12 -196 -24 -203 -26 -8 -2 9 -25 44 -56 32 -29 91 -93 133 -143
313 -376 477 -849 521 -1500 6 -90 10 -781 10 -1720 0 -1721 -3 -1631 60
-1755 43 -86 139 -184 214 -219 107 -51 253 -64 406 -37 84 15 443 143 740
264 1915 777 3506 2068 4737 3842 1037 1496 1655 3190 1817 4990 35 382 41
536 41 1040 0 608 -17 902 -81 1405 -201 1577 -730 3020 -1607 4385 -1033
1608 -2462 2892 -4197 3769 -1322 669 -2734 1037 -4255 1110 -214 10 -850 10
-1055 0z"/>
</g>
</svg>
