<svg xmlns="http://www.w3.org/2000/svg" viewBox="0 0 65.97 49.49"><title>gmail-logo</title><path d="M227.51,280.75H238V255.26L223,244v32.24A4.5,4.5,0,0,0,227.51,280.75Z" transform="translate(-223.01 -231.25)" style="fill:#557ebf"/><path d="M274,280.75h10.5a4.5,4.5,0,0,0,4.5-4.5V244l-15,11.25Z" transform="translate(-223.01 -231.25)" style="fill:#36a852"/><path d="M274,235.76v19.49L289,244v-6a6.75,6.75,0,0,0-10.8-5.4Z" transform="translate(-223.01 -231.25)" style="fill:#f9bc15"/><path d="M238,255.26V235.76l18,13.49,18-13.49v19.49l-18,13.49Z" transform="translate(-223.01 -231.25)" style="fill:#ea4535"/><path d="M223,238v6l15,11.25V235.76l-4.2-3.15A6.75,6.75,0,0,0,223,238Z" transform="translate(-223.01 -231.25)" style="fill:#c52627"/></svg>