<?xml version="1.0" standalone="no"?>
<!DOCTYPE svg PUBLIC "-//W3C//DTD SVG 20010904//EN"
 "http://www.w3.org/TR/2001/REC-SVG-20010904/DTD/svg10.dtd">
<svg version="1.0" xmlns="http://www.w3.org/2000/svg"
 width="1576.000000pt" height="1576.000000pt" viewBox="0 0 1576.000000 1576.000000"
 preserveAspectRatio="xMidYMid meet">

<g transform="translate(0.000000,1576.000000) scale(0.100000,-0.100000)"
fill="#000000" stroke="none">
<path d="M3970 15234 c-638 -75 -1209 -291 -1723 -652 -219 -153 -480 -391
-662 -602 -504 -585 -800 -1288 -878 -2078 -18 -190 -18 -8036 1 -8237 101
-1090 647 -2043 1535 -2677 571 -408 1232 -636 1942 -668 261 -12 7415 -12
7680 0 524 23 1006 150 1470 384 1123 569 1875 1661 2000 2906 14 138 15 600
12 4245 -3 4477 2 4104 -57 4420 -91 485 -303 990 -588 1400 -225 323 -567
670 -882 895 -441 315 -970 537 -1500 629 -307 54 -68 51 -4310 50 -3235 -1
-3945 -4 -4040 -15z m7595 -1171 c172 -29 250 -46 386 -84 506 -139 975 -415
1354 -794 483 -484 775 -1066 882 -1765 17 -108 18 -315 18 -3635 l0 -3520
-23 -147 c-107 -686 -415 -1288 -904 -1764 -540 -526 -1228 -830 -1978 -874
-204 -12 -6346 -12 -6550 0 -645 38 -1241 266 -1750 670 -125 99 -389 361
-484 480 -170 213 -365 547 -461 790 -129 327 -196 637 -215 989 -12 229 -13
6519 0 6746 13 254 47 461 111 685 224 783 739 1438 1452 1849 384 221 791
347 1277 395 19 1 1547 2 3395 2 l3360 -1 130 -22z"/>
<path d="M11722 12796 c-165 -32 -292 -82 -426 -169 -258 -169 -434 -434 -491
-742 -25 -132 -17 -355 18 -487 99 -375 386 -673 762 -791 385 -120 829 -10
1120 278 229 226 350 543 331 867 -29 488 -368 901 -844 1025 -121 31 -353 41
-470 19z"/>
<path d="M7845 11529 c-1187 -49 -2300 -685 -2958 -1689 -368 -562 -566 -1167
-609 -1861 -27 -437 40 -946 178 -1359 250 -749 707 -1382 1333 -1849 828
-617 1876 -863 2901 -680 649 115 1258 404 1769 838 129 109 343 326 457 463
942 1134 1127 2739 468 4061 -359 720 -932 1300 -1649 1668 -466 240 -997 385
-1475 404 -69 3 -152 7 -185 8 -33 2 -136 0 -230 -4z m530 -943 c620 -85 1174
-367 1611 -818 409 -423 672 -956 770 -1563 22 -136 30 -569 14 -718 -52 -479
-202 -897 -466 -1294 -390 -588 -1007 -1017 -1679 -1168 -334 -75 -713 -85
-1055 -29 -544 89 -1073 366 -1477 771 -904 909 -1089 2313 -453 3437 208 367
524 709 870 940 365 244 785 400 1200 446 52 5 111 12 130 14 73 9 429 -4 535
-18z"/>
</g>
</svg>
